<?xml version="1.0" encoding="utf-8"?>
<!-- Generator: Adobe Illustrator 23.0.3, SVG Export Plug-In . SVG Version: 6.00 Build 0)  -->
<svg version="1.1" xmlns="http://www.w3.org/2000/svg" xmlns:xlink="http://www.w3.org/1999/xlink" x="0px" y="0px"
	 viewBox="0 0 725.68 296.27" style="enable-background:new 0 0 725.68 296.27;" xml:space="preserve">
<style type="text/css">
	.st0{fill:#00A651;}
	.st1{fill-rule:evenodd;clip-rule:evenodd;fill:none;stroke:#000000;stroke-width:0.2498;stroke-miterlimit:3.8637;}
	.st2{fill-rule:evenodd;clip-rule:evenodd;fill:none;stroke:#000000;stroke-width:0.2352;stroke-miterlimit:3.8637;}
	.st3{fill-rule:evenodd;clip-rule:evenodd;fill:none;stroke:#000000;stroke-width:0.2192;stroke-miterlimit:3.8637;}
	.st4{fill-rule:evenodd;clip-rule:evenodd;fill:#919396;stroke:#000000;stroke-width:0.3332;stroke-miterlimit:3.8637;}
	.st5{fill-rule:evenodd;clip-rule:evenodd;fill:url(#SVGID_1_);}
	.st6{fill:url(#SVGID_2_);stroke:#000000;stroke-width:0.2498;stroke-miterlimit:3.8637;}
	.st7{fill:url(#SVGID_3_);stroke:#000000;stroke-width:0.2498;stroke-miterlimit:3.8637;}
	.st8{stroke:#000000;stroke-width:0.2498;stroke-miterlimit:3.8637;}
	.st9{fill:url(#SVGID_4_);stroke:#000000;stroke-width:0.2498;stroke-miterlimit:3.8637;}
	.st10{fill:url(#SVGID_5_);stroke:#000000;stroke-width:0.2498;stroke-miterlimit:3.8637;}
	.st11{fill:url(#SVGID_6_);stroke:#000000;stroke-width:0.2498;stroke-miterlimit:3.8637;}
	.st12{fill:url(#SVGID_7_);stroke:#000000;stroke-width:0.2498;stroke-miterlimit:3.8637;}
	.st13{fill:url(#SVGID_8_);stroke:#000000;stroke-width:0.2498;stroke-miterlimit:3.8637;}
	.st14{fill:url(#SVGID_9_);stroke:#000000;stroke-width:0.2498;stroke-miterlimit:3.8637;}
	.st15{fill:url(#SVGID_10_);stroke:#000000;stroke-width:0.2498;stroke-miterlimit:3.8637;}
	.st16{fill:url(#SVGID_11_);stroke:#000000;stroke-width:0.2498;stroke-miterlimit:3.8637;}
	.st17{fill:url(#SVGID_12_);stroke:#000000;stroke-width:0.2498;stroke-miterlimit:3.8637;}
	.st18{fill:url(#SVGID_13_);stroke:#000000;stroke-width:0.2498;stroke-miterlimit:3.8637;}
	.st19{fill:url(#SVGID_14_);stroke:#000000;stroke-width:0.2498;stroke-miterlimit:3.8637;}
	.st20{fill:url(#SVGID_15_);stroke:#000000;stroke-width:0.2498;stroke-miterlimit:3.8637;}
	.st21{fill:url(#SVGID_16_);stroke:#000000;stroke-width:0.2498;stroke-miterlimit:3.8637;}
	.st22{fill:url(#SVGID_17_);stroke:#000000;stroke-width:0.2498;stroke-miterlimit:3.8637;}
	.st23{fill:#FFFFFF;stroke:#000000;stroke-width:0.2498;stroke-miterlimit:3.8637;}
	.st24{fill:url(#SVGID_18_);stroke:#000000;stroke-width:0.2498;stroke-miterlimit:3.8637;}
	.st25{fill:url(#SVGID_19_);stroke:#000000;stroke-width:0.2498;stroke-miterlimit:3.8637;}
	.st26{fill:url(#SVGID_20_);stroke:#000000;stroke-width:0.2498;stroke-miterlimit:3.8637;}
	.st27{fill-rule:evenodd;clip-rule:evenodd;fill:#919396;stroke:#000000;stroke-width:0.3137;stroke-miterlimit:3.8637;}
	.st28{fill-rule:evenodd;clip-rule:evenodd;fill:#CBCCCE;stroke:#6D6E71;stroke-width:1.0001;stroke-miterlimit:3.8637;}
	.st29{fill-rule:evenodd;clip-rule:evenodd;fill:url(#SVGID_21_);}
	.st30{fill-rule:evenodd;clip-rule:evenodd;}
	.st31{fill:#FFFFFF;stroke:#ED1C29;stroke-miterlimit:3.8637;}
	.st32{fill-rule:evenodd;clip-rule:evenodd;fill:#FFFFFF;stroke:#ED1C29;stroke-miterlimit:3.8637;}
	.st33{fill:none;stroke:#000000;stroke-width:0.5;stroke-miterlimit:3.8637;}
	.st34{fill-rule:evenodd;clip-rule:evenodd;fill:#FFFFFF;stroke:#000000;stroke-width:0.5;stroke-miterlimit:3.8637;}
	.st35{fill:none;}
	.st36{fill:#373737;}
	.st37{fill:url(#SVGID_22_);}
	.st38{fill:#FFFFFF;}
</style>
<symbol  id="Bush_Left" viewBox="-43.3 -24.31 86.6 48.62">
	<g>
		<g>
			<path class="st0" d="M-33.89-3.51c8.3,8.89,13.24,21.56,13.24,21.56C-24.14,7.54-28.21,2.32-34.92-6.17L-33.89-3.51z"/>
			<path class="st0" d="M-30.49,3.16c0.3,2.26,2.38,11.44,2.38,11.44l-2.15-5.59c-0.48-2.88,0.76-5.55,0.45-7.95L-30.49,3.16z"/>
			<path class="st0" d="M-27.67,8.56c0.3,2.27,1.73,9.83,1.73,9.83l-0.53-3.79c0-2.44-0.21-5.74-0.53-8.14L-27.67,8.56z"/>
			<path class="st0" d="M-24.19,13.38c0.22,1.38,3.05,6.61,3.05,6.61l-2.18-2.93c0-1.49-0.15-3.5-0.38-4.96L-24.19,13.38z"/>
			<path class="st0" d="M-21.17,18.08c0.6,1.18,2.76,6.23,2.76,6.23l-1.28-3.51c-0.31-1.29-0.96-3.02-1.6-4.26L-21.17,18.08z"/>
			<path class="st0" d="M-26.04,10.33c0.3,2.27,1.73,9.83,1.73,9.83l-1.16-4.84c0-2.44,0.42-4.7,0.11-7.09L-26.04,10.33z"/>
			<path class="st0" d="M-24.52,3.49c1.42,0.87,6.5,3.4,6.5,3.4l-3.35-2.2c-1.77-1.16-5.32-0.63-6.83-1.54L-24.52,3.49z"/>
			<path class="st0" d="M-21.85,6.88c1.9,1.26,6.13,5.08,6.13,5.08l-3.16-2.14c-2.19-1.07-5.05-2.71-7.06-4.04L-21.85,6.88z"/>
			<path class="st0" d="M-21.84,13.09c1.04,0.93,3.87,6.17,3.87,6.17l-1.26-3.43c-1.24-0.81-2.84-2.04-3.94-3.03L-21.84,13.09z"/>
			<path class="st0" d="M-23.27,9.47c1.58,1.01,5.96,5.85,5.96,5.85l-2.63-3.88c-1.82-0.86-3.47-1.16-5.14-2.23L-23.27,9.47z"/>
			<path class="st0" d="M-32.97,0.37c0.3,2.26,1.6,12.74,1.6,12.74l-1.38-6.89c-0.48-2.88,0.76-5.55,0.45-7.95L-32.97,0.37z"/>
			<path class="st0" d="M-34.97-1.26c0.3,2.27,1.6,12.74,1.6,12.74l-1.38-6.89c-0.48-2.88,0.76-5.56,0.45-7.95L-34.97-1.26z"/>
			<path class="st0" d="M-29.4-0.56c1.55,0.61,10.18,4.28,10.18,4.28l-4.82-3.12c-1.95-0.84-5.36-0.45-7-1.09L-29.4-0.56z"/>
			<path class="st0" d="M-29.97-3.32c1.73,0.74,9.73,4.11,9.73,4.11l-5.13-2.75c-2.17-1.05-4.61-0.29-6.44-1.08L-29.97-3.32z"/>
		</g>
		<g>
			<path class="st0" d="M-41.11-9.82c17.33-2.83,35.77-10.6,35.77-10.6C-18.81-13.76-28.1-11.68-43.3-8.34L-41.11-9.82z"/>
			<path class="st0" d="M-29.85-13.56c2.4-1.68,13.09-8,13.09-8l-7.5,3.39c-3.16,2.08-4.23,4.89-6.77,6.67L-29.85-13.56z"/>
			<path class="st0" d="M-21.79-16.45c2.4-1.68,10.89-7.04,10.89-7.04l-4.05,2.79c-2.23,1.97-5.48,4.54-8.02,6.31L-21.79-16.45z"/>
			<path class="st0" d="M-13.53-18.51c1.5-1,9.43-3.74,9.43-3.74l-5.1,1.22c-1.36,1.2-3.37,2.75-4.96,3.81L-13.53-18.51z"/>
			<path class="st0" d="M-5.89-20.72c1.74-0.63,8.76-3.59,8.76-3.59l-4.63,2.17c-1.52,0.88-3.82,1.94-5.67,2.61L-5.89-20.72z"/>
			<path class="st0" d="M-18.37-17.02c2.4-1.68,10.9-7.04,10.9-7.04l-5.71,3.3c-2.23,1.97-3.83,4.02-6.37,5.79L-18.37-17.02z"/>
			<path class="st0" d="M-22.94-10.69c2.37,0.05,10.31,0.67,10.31,0.67L-18.35-10c-3.03,0.01-6.48-2.29-8.98-2.34L-22.94-10.69z"/>
			<path class="st0" d="M-16.88-12.03c3.26-0.02,11.44-0.88,11.44-0.88l-5.46,0.07c-3.4-0.29-8.08-0.47-11.53-0.45L-16.88-12.03z"/>
			<path class="st0" d="M-11.19-17.04c2-0.21,9.92-2.96,9.92-2.96l-4.54,2.11c-2.12,0-5.01,0.15-7.13,0.37L-11.19-17.04z"/>
			<path class="st0" d="M-16.08-14.87c2.67,0.01,11.96-1.59,11.96-1.59l-6.46,1.75c-2.8-0.26-4.91-0.89-7.74-0.9L-16.08-14.87z"/>
			<path class="st0" d="M-35.15-12.6c2.4-1.68,13.41-9.46,13.41-9.46l-7.82,4.85c-3.16,2.08-4.23,4.89-6.77,6.67L-35.15-12.6z"/>
			<path class="st0" d="M-38.86-12.34c2.4-1.68,13.41-9.46,13.41-9.46l-7.82,4.85c-3.16,2.08-4.23,4.89-6.77,6.67L-38.86-12.34z"/>
			<path class="st0" d="M-32.05-9.98c2.27,0.33,15.2,1.89,15.2,1.89l-8.2-0.01c-2.93-0.35-6.36-2.46-8.77-2.8L-32.05-9.98z"/>
			<path class="st0" d="M-35.2-8.05c2.59,0.31,14.54,1.8,14.54,1.8l-8.2-0.48c-3.37-0.29-5.38-2.19-8.13-2.52L-35.2-8.05z"/>
		</g>
		<g>
			<path class="st0" d="M-20.02-4.79c13.51-1.99,27.73-7.05,27.73-7.05c-10.5,4.69-17.74,6.16-29.59,8.51L-20.02-4.79z"/>
			<path class="st0" d="M-11.4-7.01C-9.53-8.2-1.2-12.65-1.2-12.65l-5.85,2.39c-2.47,1.46-3.3,3.45-5.28,4.7L-11.4-7.01z"/>
			<path class="st0" d="M-5.11-9.05c1.87-1.18,8.49-4.96,8.49-4.96l-3.16,1.96c-1.74,1.39-4.27,3.19-6.25,4.44L-5.11-9.05z"/>
			<path class="st0" d="M1.32-10.5c1.17-0.71,7.35-2.64,7.35-2.64L4.7-12.27c-1.06,0.85-2.63,1.94-3.87,2.69L1.32-10.5z"/>
			<path class="st0" d="M7.28-12.06c1.36-0.45,6.83-2.53,6.83-2.53l-3.61,1.52c-1.19,0.62-2.98,1.37-4.42,1.84L7.28-12.06z"/>
			<path class="st0" d="M-2.45-9.45c1.87-1.18,8.49-4.96,8.49-4.96l-4.45,2.33c-1.74,1.39-2.98,2.83-4.96,4.08L-2.45-9.45z"/>
			<path class="st0" d="M-6.01-4.99c1.85,0.03,8.04,0.47,8.04,0.47l-4.46,0.01c-2.36,0.01-5.05-1.62-7-1.65L-6.01-4.99z"/>
			<path class="st0" d="M-1.29-5.94c2.54-0.01,8.92-0.62,8.92-0.62L3.37-6.51c-2.65-0.2-6.3-0.33-8.99-0.31L-1.29-5.94z"/>
			<path class="st0" d="M3.15-9.46c1.56-0.15,7.74-2.08,7.74-2.08l-3.54,1.49c-1.65,0-3.91,0.11-5.56,0.26L3.15-9.46z"/>
			<path class="st0" d="M-0.67-7.94c2.08,0.01,9.32-1.12,9.32-1.12L3.62-7.83C1.44-8.01-0.21-8.45-2.41-8.46L-0.67-7.94z"/>
			<path class="st0" d="M-15.54-6.34C-13.66-7.52-5.08-13-5.08-13l-6.1,3.41c-2.47,1.46-3.3,3.45-5.28,4.7L-15.54-6.34z"/>
			<path class="st0" d="M-18.43-6.15c1.87-1.18,10.46-6.66,10.46-6.66l-6.1,3.41c-2.47,1.46-3.3,3.45-5.28,4.7L-18.43-6.15z"/>
			<path class="st0" d="M-13.11-4.5c1.77,0.23,11.85,1.33,11.85,1.33l-6.39-0.01c-2.28-0.25-4.96-1.73-6.83-1.97L-13.11-4.5z"/>
			<path class="st0" d="M-15.57-3.13c2.02,0.22,11.34,1.27,11.34,1.27l-6.39-0.34c-2.62-0.21-4.19-1.54-6.34-1.77L-15.57-3.13z"/>
		</g>
		<g>
			<path class="st0" d="M1.65-2.06c12.24-1.71,25.11-6.07,25.11-6.07c-9.51,4.03-16.07,5.3-26.8,7.32L1.65-2.06z"/>
			<path class="st0" d="M9.46-3.97c1.69-1.01,9.24-4.85,9.24-4.85l-5.29,2.05C11.17-5.5,10.42-3.8,8.63-2.72L9.46-3.97z"/>
			<path class="st0" d="M15.15-5.71c1.69-1.02,7.69-4.27,7.69-4.27l-2.86,1.69c-1.57,1.2-3.87,2.75-5.66,3.82L15.15-5.71z"/>
			<path class="st0" d="M20.98-6.96c1.06-0.61,6.65-2.27,6.65-2.27l-3.6,0.74c-0.96,0.73-2.38,1.67-3.5,2.31L20.98-6.96z"/>
			<path class="st0" d="M26.38-8.3c1.23-0.38,6.18-2.17,6.18-2.17l-3.27,1.31c-1.08,0.53-2.7,1.17-4,1.58L26.38-8.3z"/>
			<path class="st0" d="M17.57-6.06c1.69-1.01,7.69-4.27,7.69-4.27l-4.03,2c-1.57,1.2-2.7,2.44-4.49,3.51L17.57-6.06z"/>
			<path class="st0" d="M14.34-2.22c1.67,0.03,7.28,0.41,7.28,0.41l-4.04,0.01c-2.14,0-4.57-1.39-6.34-1.42L14.34-2.22z"/>
			<path class="st0" d="M18.62-3.04c2.3-0.01,8.07-0.53,8.07-0.53l-3.86,0.04c-2.4-0.17-5.7-0.28-8.14-0.27L18.62-3.04z"/>
			<path class="st0" d="M22.64-6.07c1.41-0.13,7.01-1.79,7.01-1.79l-3.2,1.28c-1.5,0-3.54,0.09-5.04,0.23L22.64-6.07z"/>
			<path class="st0" d="M19.18-4.76c1.89,0.01,8.44-0.97,8.44-0.97l-4.56,1.06C21.09-4.82,19.6-5.2,17.6-5.21L19.18-4.76z"/>
			<path class="st0" d="M5.72-3.39c1.69-1.02,9.47-5.73,9.47-5.73L9.66-6.18C7.43-4.92,6.68-3.22,4.88-2.14L5.72-3.39z"/>
			<path class="st0" d="M3.1-3.23c1.69-1.01,9.47-5.73,9.47-5.73L7.05-6.02C4.81-4.76,4.06-3.06,2.27-1.98L3.1-3.23z"/>
			<path class="st0" d="M7.91-1.8c1.6,0.2,10.73,1.15,10.73,1.15l-5.79-0.01c-2.07-0.21-4.49-1.49-6.19-1.7L7.91-1.8z"/>
			<path class="st0" d="M5.69-0.63c1.83,0.19,10.27,1.09,10.27,1.09l-5.79-0.29c-2.38-0.18-3.8-1.33-5.74-1.52L5.69-0.63z"/>
		</g>
		<g>
			<path class="st0" d="M14,2.84c11.08-1.47,22.74-5.22,22.74-5.22c-8.61,3.47-14.55,4.56-24.26,6.29L14,2.84z"/>
			<path class="st0" d="M21.07,1.19c1.53-0.87,8.37-4.17,8.37-4.17l-4.79,1.77c-2.02,1.08-2.7,2.55-4.33,3.47L21.07,1.19z"/>
			<path class="st0" d="M26.23-0.31c1.53-0.87,6.96-3.67,6.96-3.67L30.6-2.53c-1.43,1.03-3.5,2.36-5.13,3.29L26.23-0.31z"/>
			<path class="st0" d="M31.5-1.39c0.96-0.52,6.03-1.95,6.03-1.95L34.27-2.7c-0.87,0.63-2.15,1.43-3.17,1.99L31.5-1.39z"/>
			<path class="st0" d="M36.39-2.54c1.11-0.33,5.6-1.87,5.6-1.87l-2.96,1.13c-0.97,0.46-2.44,1.01-3.62,1.36L36.39-2.54z"/>
			<path class="st0" d="M28.41-0.61c1.53-0.87,6.96-3.67,6.96-3.67l-3.65,1.72c-1.43,1.03-2.45,2.09-4.07,3.02L28.41-0.61z"/>
			<path class="st0" d="M25.49,2.69c1.51,0.02,6.59,0.35,6.59,0.35l-3.66,0.01c-1.94,0-4.14-1.2-5.74-1.22L25.49,2.69z"/>
			<path class="st0" d="M29.37,1.99c2.08-0.01,7.31-0.46,7.31-0.46l-3.49,0.03c-2.17-0.15-5.16-0.24-7.37-0.23L29.37,1.99z"/>
			<path class="st0" d="M33-0.62c1.28-0.11,6.34-1.54,6.34-1.54l-2.9,1.1c-1.36,0-3.21,0.08-4.56,0.2L33-0.62z"/>
			<path class="st0" d="M29.87,0.51c1.71,0.01,7.64-0.83,7.64-0.83l-4.13,0.91c-1.79-0.14-3.14-0.46-4.95-0.47L29.87,0.51z"/>
			<path class="st0" d="M17.68,1.69c1.53-0.87,8.57-4.93,8.57-4.93l-5,2.53c-2.02,1.08-2.7,2.55-4.33,3.47L17.68,1.69z"/>
			<path class="st0" d="M15.31,1.83c1.53-0.87,8.57-4.93,8.57-4.93l-5,2.53c-2.02,1.08-2.7,2.55-4.33,3.47L15.31,1.83z"/>
			<path class="st0" d="M19.67,3.06c1.45,0.17,9.72,0.99,9.72,0.99l-5.24-0.01c-1.87-0.18-4.07-1.28-5.6-1.46L19.67,3.06z"/>
			<path class="st0" d="M17.65,4.07C19.31,4.23,26.95,5,26.95,5l-5.24-0.25c-2.15-0.15-3.44-1.14-5.2-1.31L17.65,4.07z"/>
		</g>
		<g>
			<path class="st0" d="M-16.82,0.15C-9.21,6.41-2.93,16.13-2.93,16.13C-7.01,7.95-10.86,4.17-17.18-1.96L-16.82,0.15z"/>
			<path class="st0" d="M-12.52,5.15c0.52,1.82,3.33,9.08,3.33,9.08l-2.4-4.32c-0.75-2.3-0.13-4.65-0.68-6.57L-12.52,5.15z"/>
			<path class="st0" d="M-9.62,9.23C-9.1,11.05-7,17.07-7,17.07l-0.9-3.04c-0.32-2-0.91-4.68-1.47-6.61L-9.62,9.23z"/>
			<path class="st0" d="M-6.29,12.74c0.35,1.11,3.23,5.04,3.23,5.04l-2.08-2.13c-0.19-1.22-0.57-2.85-0.94-4.02L-6.29,12.74z"/>
			<path class="st0" d="M-3.33,16.22c0.62,0.89,2.96,4.77,2.96,4.77l-1.45-2.72c-0.41-1.02-1.14-2.36-1.79-3.3L-3.33,16.22z"/>
			<path class="st0" d="M-8.13,10.47c0.53,1.82,2.62,7.84,2.62,7.84l-1.53-3.82c-0.32-2-0.28-3.9-0.84-5.83L-8.13,10.47z"/>
			<path class="st0" d="M-7.83,4.68c1.22,0.53,5.5,1.98,5.5,1.98l-2.89-1.39c-1.53-0.74-4.22,0.14-5.51-0.42L-7.83,4.68z"/>
			<path class="st0" d="M-5.32,7.13c1.64,0.8,5.43,3.41,5.43,3.41l-2.74-1.36c-1.84-0.61-4.28-1.6-6.02-2.44L-5.32,7.13z"/>
			<path class="st0" d="M-4.5,12.21c0.93,0.64,3.81,4.58,3.81,4.58l-1.43-2.66c-1.07-0.51-2.48-1.32-3.46-1.99L-4.5,12.21z"/>
			<path class="st0" d="M-6.08,9.43c1.36,0.63,5.4,4.06,5.4,4.06l-2.55-2.85c-1.52-0.48-2.85-0.52-4.29-1.19L-6.08,9.43z"/>
			<path class="st0" d="M-14.81,3.16c0.52,1.82,2.9,10.24,2.9,10.24l-1.97-5.47c-0.75-2.3-0.13-4.65-0.68-6.57L-14.81,3.16z"/>
			<path class="st0" d="M-16.58,2.07c0.53,1.82,2.9,10.24,2.9,10.24l-1.96-5.47c-0.75-2.3-0.13-4.65-0.68-6.57L-16.58,2.07z"/>
			<path class="st0" d="M-12.16,1.96c1.28,0.31,8.48,2.26,8.48,2.26l-4.16-1.96c-1.63-0.45-4.23,0.29-5.59-0.03L-12.16,1.96z"/>
			<path class="st0" d="M-12.96-0.23c1.44,0.4,8.1,2.17,8.1,2.17L-9.2,0.32c-1.83-0.59-3.63,0.33-5.15-0.09L-12.96-0.23z"/>
		</g>
		<g>
			<path class="st0" d="M-1.74,1.38c5.02,5.23,8.85,13.01,8.85,13.01C4.75,7.92,2.25,4.81-1.85-0.24L-1.74,1.38z"/>
			<path class="st0" d="M1,5.44c0.25,1.42,1.78,7.11,1.78,7.11L1.35,9.12C0.97,7.33,1.57,5.58,1.3,4.09L1,5.44z"/>
			<path class="st0" d="M2.8,8.72c0.25,1.42,1.35,6.12,1.35,6.12L3.7,12.48C3.61,10.94,3.36,8.86,3.1,7.37L2.8,8.72z"/>
			<path class="st0" d="M4.94,11.6c0.17,0.86,1.97,4.03,1.97,4.03l-1.34-1.75c-0.06-0.94-0.22-2.2-0.41-3.11L4.94,11.6z"/>
			<path class="st0" d="M6.82,14.43c0.38,0.71,1.79,3.81,1.79,3.81l-0.86-2.16c-0.23-0.8-0.66-1.86-1.06-2.62L6.82,14.43z"/>
			<path class="st0" d="M3.78,9.76c0.25,1.42,1.35,6.12,1.35,6.12l-0.84-3C4.2,11.35,4.35,9.91,4.08,8.41L3.78,9.76z"/>
			<path class="st0" d="M4.38,5.38c0.83,0.48,3.79,1.85,3.79,1.85L6.2,5.99C5.15,5.34,3.17,5.84,2.29,5.33L4.38,5.38z"/>
			<path class="st0" d="M6.01,7.4c1.12,0.71,3.65,2.92,3.65,2.92L7.79,9.12C6.52,8.54,4.84,7.64,3.66,6.89L6.01,7.4z"/>
			<path class="st0" d="M6.26,11.31c0.62,0.54,2.41,3.72,2.41,3.72l-0.84-2.11c-0.73-0.46-1.68-1.16-2.34-1.73L6.26,11.31z"/>
			<path class="st0" d="M5.31,9.1c0.93,0.57,3.58,3.42,3.58,3.42l-1.63-2.33c-1.06-0.46-2-0.57-2.98-1.17L5.31,9.1z"/>
			<path class="st0" d="M-0.5,3.79c0.25,1.42,1.39,7.96,1.39,7.96l-1.04-4.28c-0.38-1.8,0.22-3.54-0.05-5.04L-0.5,3.79z"/>
			<path class="st0" d="M-1.69,2.86c0.25,1.42,1.39,7.96,1.39,7.96l-1.04-4.28C-1.72,4.74-1.12,3-1.39,1.5L-1.69,2.86z"/>
			<path class="st0" d="M1.47,3.05c0.9,0.31,5.9,2.24,5.9,2.24L4.54,3.54C3.41,3.1,1.5,3.5,0.55,3.17L1.47,3.05z"/>
			<path class="st0" d="M1.05,1.33c1,0.39,5.64,2.15,5.64,2.15l-3-1.5C2.43,1.42,1.08,2.01,0.02,1.59L1.05,1.33z"/>
		</g>
		<g>
			<path class="st0" d="M10.39,4.12c5.33,4.5,9.14,10.95,9.14,10.95c-2.24-5.31-4.85-7.95-9.16-12.25L10.39,4.12z"/>
			<path class="st0" d="M13.22,7.54c0.19,1.15,1.53,5.79,1.53,5.79l-1.38-2.83c-0.31-1.46,0.49-2.81,0.29-4.02L13.22,7.54z"/>
			<path class="st0" d="M15.03,10.28c0.19,1.15,1.11,4.97,1.11,4.97l-0.34-1.92c0-1.23-0.14-2.9-0.34-4.12L15.03,10.28z"/>
			<path class="st0" d="M17.26,12.71c0.14,0.7,1.96,3.34,1.96,3.34l-1.4-1.48c0-0.75-0.1-1.77-0.25-2.51L17.26,12.71z"/>
			<path class="st0" d="M19.2,15.09c0.39,0.59,1.77,3.15,1.77,3.15l-0.82-1.77c-0.2-0.65-0.62-1.53-1.02-2.16L19.2,15.09z"/>
			<path class="st0" d="M16.07,11.17c0.19,1.14,1.11,4.97,1.11,4.97l-0.75-2.45c0-1.23,0.27-2.38,0.07-3.59L16.07,11.17z"/>
			<path class="st0" d="M17.05,7.71c0.91,0.44,4.17,1.72,4.17,1.72l-2.15-1.11C17.93,7.73,15.65,8,14.68,7.54L17.05,7.71z"/>
			<path class="st0" d="M18.76,9.43c1.22,0.64,3.93,2.57,3.93,2.57l-2.03-1.08c-1.4-0.54-3.24-1.37-4.53-2.04L18.76,9.43z"/>
			<path class="st0" d="M18.77,12.56c0.67,0.47,2.48,3.12,2.48,3.12l-0.81-1.74c-0.8-0.41-1.82-1.03-2.53-1.53L18.77,12.56z"/>
			<path class="st0" d="M17.85,10.73c1.01,0.51,3.83,2.96,3.83,2.96l-1.69-1.96c-1.17-0.43-2.23-0.59-3.3-1.13L17.85,10.73z"/>
			<path class="st0" d="M11.63,6.13c0.19,1.15,1.03,6.44,1.03,6.44l-0.88-3.48c-0.31-1.46,0.49-2.81,0.29-4.02L11.63,6.13z"/>
			<path class="st0" d="M10.34,5.31c0.19,1.15,1.03,6.44,1.03,6.44l-0.88-3.48c-0.31-1.46,0.49-2.81,0.29-4.02L10.34,5.31z"/>
			<path class="st0" d="M13.91,5.66c0.99,0.31,6.53,2.17,6.53,2.17l-3.09-1.58c-1.25-0.42-3.44-0.23-4.49-0.55L13.91,5.66z"/>
			<path class="st0" d="M13.55,4.27c1.11,0.38,6.24,2.08,6.24,2.08L16.5,4.95c-1.39-0.53-2.96-0.15-4.13-0.54L13.55,4.27z"/>
		</g>
		<g>
			<path class="st0" d="M22.36,7.21c9.26,2.04,17.47,6.53,17.47,6.53C34.26,9.67,29.5,8.27,21.69,6L22.36,7.21z"/>
			<path class="st0" d="M27.78,9.27c0.82,1,4.87,4.8,4.87,4.8l-3.22-2.09c-1.12-1.24-0.74-2.84-1.61-3.89L27.78,9.27z"/>
			<path class="st0" d="M31.52,11.09c0.82,1,3.92,4.21,3.92,4.21l-1.4-1.66c-0.61-1.16-1.61-2.67-2.48-3.73L31.52,11.09z"/>
			<path class="st0" d="M35.67,12.46c0.53,0.6,4.24,2.34,4.24,2.34l-2.58-0.82c-0.37-0.71-1-1.62-1.56-2.26L35.67,12.46z"/>
			<path class="st0" d="M39.4,13.89c0.8,0.4,3.9,2.23,3.9,2.23l-1.96-1.33c-0.59-0.53-1.57-1.18-2.42-1.6L39.4,13.89z"/>
			<path class="st0" d="M33.34,11.5c0.82,1,3.92,4.21,3.92,4.21l-2.19-1.99c-0.61-1.16-0.82-2.34-1.68-3.4L33.34,11.5z"/>
			<path class="st0" d="M32.92,7.85c1.42,0.04,6.35-0.1,6.35-0.1l-3.39-0.16c-1.79-0.09-4.67,1.1-6.17,1.06L32.92,7.85z"/>
			<path class="st0" d="M36.03,8.76c1.92,0.1,6.46,0.8,6.46,0.8l-3.22-0.18c-2.12,0.07-4.96,0.04-7-0.06L36.03,8.76z"/>
			<path class="st0" d="M37.59,11.7c1.11,0.17,4.82,1.91,4.82,1.91l-1.93-1.3c-1.26-0.06-2.92-0.22-4.1-0.4L37.59,11.7z"/>
			<path class="st0" d="M35.47,10.36c1.59,0.06,6.52,1.21,6.52,1.21l-3.2-1.15c-1.75,0.07-3.23,0.36-4.91,0.29L35.47,10.36z"/>
			<path class="st0" d="M24.98,8.59c0.82,1,4.53,5.62,4.53,5.62l-2.89-2.91c-1.12-1.24-0.74-2.84-1.61-3.89L24.98,8.59z"/>
			<path class="st0" d="M22.88,8.35c0.82,1,4.53,5.62,4.53,5.62l-2.89-2.91c-1.12-1.24-0.74-2.84-1.61-3.89L22.88,8.35z"/>
			<path class="st0" d="M27.77,7.22c1.46-0.12,9.7-0.65,9.7-0.65l-4.87-0.21c-1.86,0.12-4.66,1.2-6.21,1.32L27.77,7.22z"/>
			<path class="st0" d="M26.6,6.05c1.65-0.1,9.27-0.61,9.27-0.61l-5.04,0.05c-2.1,0.07-3.98,1.08-5.73,1.18L26.6,6.05z"/>
		</g>
	</g>
</symbol>
<g id="Circles">
	<g>
		<path class="st1" d="M286.95,141.57c0-27.33,22.15-49.48,49.48-49.48c27.33,0,49.48,22.15,49.48,49.48
			c0,27.33-22.15,49.48-49.48,49.48C309.1,191.05,286.95,168.9,286.95,141.57z"/>
		<path class="st1" d="M289.85,141.57c0-25.73,20.86-46.59,46.59-46.59c25.73,0,46.59,20.86,46.59,46.59s-20.86,46.59-46.59,46.59
			C310.7,188.16,289.85,167.3,289.85,141.57z"/>
		<path class="st2" d="M299.53,141.8c0-20.42,16.56-36.98,36.98-36.98c20.42,0,36.98,16.55,36.98,36.98
			c0,20.42-16.56,36.98-36.98,36.98C316.09,178.78,299.53,162.22,299.53,141.8z"/>
		<path class="st2" d="M302.04,141.8c0-19.04,15.43-34.47,34.47-34.47c19.03,0,34.46,15.43,34.46,34.47
			c0,19.03-15.43,34.47-34.46,34.47C317.47,176.27,302.04,160.84,302.04,141.8z"/>
		<path class="st3" d="M304.29,141.89c0-17.74,14.38-32.12,32.12-32.12c17.74,0,32.12,14.38,32.12,32.12
			c0,17.74-14.38,32.12-32.12,32.12C318.67,174.01,304.29,159.63,304.29,141.89z"/>
	</g>
</g>
<g id="Background_Circles">
	<path class="st4" d="M286.95,141.57c0-27.33,22.15-49.48,49.48-49.48c27.33,0,49.48,22.15,49.48,49.48
		c0,27.33-22.15,49.48-49.48,49.48C309.11,191.05,286.95,168.9,286.95,141.57z"/>
	
		<radialGradient id="SVGID_1_" cx="3020.959" cy="-1451.8094" r="46.5864" gradientTransform="matrix(1 0 0 1 -2700 1584)" gradientUnits="userSpaceOnUse">
		<stop  offset="0" style="stop-color:#FFFFFF"/>
		<stop  offset="1" style="stop-color:#000000"/>
	</radialGradient>
	<circle class="st5" cx="336.43" cy="141.57" r="46.59"/>
</g>
<g id="Compass_x5F_01">
	
		<linearGradient id="SVGID_2_" gradientUnits="userSpaceOnUse" x1="3022.2461" y1="-1419.8873" x2="3094.3132" y2="-1365.5808" gradientTransform="matrix(1 0 0 1 -2700 1584)">
		<stop  offset="0" style="stop-color:#000000"/>
		<stop  offset="1" style="stop-color:#DADBDC"/>
	</linearGradient>
	<polygon class="st6" points="335.93,145.96 343.31,158.45 380.63,236.58 335.4,157.77 	"/>
	
		<linearGradient id="SVGID_3_" gradientUnits="userSpaceOnUse" x1="3000.7258" y1="-1433.6423" x2="3026.0757" y2="-1360.0215" gradientTransform="matrix(1 0 0 1 -2700 1584)">
		<stop  offset="0" style="stop-color:#000000"/>
		<stop  offset="0.9453" style="stop-color:#FFFFFF"/>
		<stop  offset="1" style="stop-color:#FFFFFF"/>
	</linearGradient>
	<polygon class="st7" points="335.93,145.96 322.68,169.24 293.25,235.28 324.63,142.46 324.52,142.16 	"/>
	<polygon class="st8" points="335.93,145.96 335.4,157.77 293.25,235.28 322.68,169.24 	"/>
	
		<linearGradient id="SVGID_4_" gradientUnits="userSpaceOnUse" x1="3010.7332" y1="-1440.2489" x2="3018.4211" y2="-1528.1224" gradientTransform="matrix(1 0 0 1 -2700 1584)">
		<stop  offset="0" style="stop-color:#000000"/>
		<stop  offset="1" style="stop-color:#F9F9FA"/>
	</linearGradient>
	<polygon class="st9" points="335.93,145.96 324.63,142.46 293.23,53.67 326.73,131.69 	"/>
	
		<linearGradient id="SVGID_5_" gradientUnits="userSpaceOnUse" x1="3004.4722" y1="-1446.4734" x2="3024.6821" y2="-1521.8981" gradientTransform="matrix(1 0 0 1 -2700 1584)">
		<stop  offset="0" style="stop-color:#000000"/>
		<stop  offset="1" style="stop-color:#808285"/>
	</linearGradient>
	<polygon class="st10" points="335.93,145.96 326.73,131.69 293.23,53.67 335.4,136.55 	"/>
	
		<linearGradient id="SVGID_6_" gradientUnits="userSpaceOnUse" x1="3035.3984" y1="-1484.1857" x2="3081.9258" y2="-1484.1857" gradientTransform="matrix(1 0 0 1 -2700 1584)">
		<stop  offset="0" style="stop-color:#000000"/>
		<stop  offset="1" style="stop-color:#FFFFFF"/>
	</linearGradient>
	<polygon class="st11" points="335.93,145.96 335.4,136.55 381.93,53.67 344.37,130.88 	"/>
	
		<linearGradient id="SVGID_7_" gradientUnits="userSpaceOnUse" x1="3022.6167" y1="-1456.3672" x2="3096.605" y2="-1510.1228" gradientTransform="matrix(1 0 0 1 -2700 1584)">
		<stop  offset="0" style="stop-color:#000000"/>
		<stop  offset="1" style="stop-color:#CCCED0"/>
	</linearGradient>
	<polygon class="st12" points="335.93,145.96 344.37,130.88 381.93,53.67 344.7,142.46 	"/>
	<polygon class="st8" points="335.93,145.96 344.7,142.46 380.63,236.58 343.31,158.45 	"/>
</g>
<g id="Compass_x5F_02">
	
		<linearGradient id="SVGID_8_" gradientUnits="userSpaceOnUse" x1="3037.4912" y1="-1455.897" x2="3091.7373" y2="-1455.897" gradientTransform="matrix(1 0 0 1 -2700 1584)">
		<stop  offset="0" style="stop-color:#000000"/>
		<stop  offset="1" style="stop-color:#A5A7AA"/>
	</linearGradient>
	<polygon class="st13" points="337.49,141.16 391.74,113.67 350.71,142.54 	"/>
	<polygon class="st8" points="337.49,141.16 350.71,142.54 410.12,179.71 	"/>
	
		<linearGradient id="SVGID_9_" gradientUnits="userSpaceOnUse" x1="3089.9287" y1="-1435.8206" x2="2965.8311" y2="-1442.3242" gradientTransform="matrix(1 0 0 1 -2700 1584)">
		<stop  offset="0" style="stop-color:#000000"/>
		<stop  offset="1" style="stop-color:#E9EAEB"/>
	</linearGradient>
	<polygon class="st14" points="337.49,141.16 264.02,176.19 335.95,131.75 391.74,113.67 	"/>
	<polygon class="st8" points="337.49,141.16 341.3,149.91 264.02,176.19 	"/>
	
		<linearGradient id="SVGID_10_" gradientUnits="userSpaceOnUse" x1="3037.4912" y1="-1423.7764" x2="3109.4424" y2="-1423.7764" gradientTransform="matrix(1 0 0 1 -2700 1584)">
		<stop  offset="0" style="stop-color:#000000"/>
		<stop  offset="1" style="stop-color:#D6D8D9"/>
	</linearGradient>
	<polygon class="st15" points="337.49,141.16 408.39,178.63 409.44,179.29 408.41,178.97 341.3,149.91 	"/>
</g>
<g id="Compass_x5F_03">
	
		<linearGradient id="SVGID_11_" gradientUnits="userSpaceOnUse" x1="3059.6406" y1="-1512.8105" x2="3035.8369" y2="-1512.8105" gradientTransform="matrix(1 0 0 1 -2700 1584)">
		<stop  offset="0" style="stop-color:#C1B9B7"/>
		<stop  offset="0.9883" style="stop-color:#060302"/>
		<stop  offset="1" style="stop-color:#060302"/>
	</linearGradient>
	<polygon class="st16" points="359.64,131.7 359.64,142.36 335.84,142.36 335.84,0.92 335.95,0.02 353.34,131.5 	"/>
	
		<linearGradient id="SVGID_12_" gradientUnits="userSpaceOnUse" x1="3035.9746" y1="-1512.8105" x2="3012.1709" y2="-1512.8105" gradientTransform="matrix(1 0 0 1 -2700 1584)">
		<stop  offset="0" style="stop-color:#FFFFFF"/>
		<stop  offset="1" style="stop-color:#504C4B"/>
	</linearGradient>
	<polygon class="st17" points="335.97,0.19 335.97,142.36 312.17,142.36 312.17,132.04 319.21,131.8 335.95,0.02 	"/>
	
		<linearGradient id="SVGID_13_" gradientUnits="userSpaceOnUse" x1="3011.9219" y1="-1374.7341" x2="3035.7256" y2="-1374.7341" gradientTransform="matrix(1 0 0 1 -2700 1584)">
		<stop  offset="0" style="stop-color:#FFFFFF"/>
		<stop  offset="1" style="stop-color:#504C4B"/>
	</linearGradient>
	<polygon class="st18" points="311.92,141.84 335.72,141.84 335.73,276.69 320.4,155.15 311.92,154.81 	"/>
	<polygon class="st8" points="335.92,141.84 359.72,141.84 359.73,155.27 354.53,155.45 335.95,278.49 335.92,278.25 	"/>
	
		<linearGradient id="SVGID_14_" gradientUnits="userSpaceOnUse" x1="2870.8638" y1="-1441.6232" x2="2870.8638" y2="-1454.8538" gradientTransform="matrix(1 0 0 1 -2700 1584)">
		<stop  offset="0" style="stop-color:#0C0C0D"/>
		<stop  offset="0.875" style="stop-color:#FFFFFF"/>
		<stop  offset="1" style="stop-color:#FFFFFF"/>
	</linearGradient>
	<polygon class="st19" points="335.71,142.38 6.02,142.38 319.21,131.8 319.55,129.15 335.71,129.15 	"/>
	<polygon class="st8" points="3.32,142.47 335.8,142.47 335.8,155.7 320.47,155.7 320.4,155.15 0,142.58 	"/>
	
		<linearGradient id="SVGID_15_" gradientUnits="userSpaceOnUse" x1="3226.0825" y1="-1440.7908" x2="3226.0825" y2="-1427.5602" gradientTransform="matrix(1 0 0 1 -2700 1584)">
		<stop  offset="0" style="stop-color:#0B0B0B"/>
		<stop  offset="1" style="stop-color:#F9F9F9"/>
	</linearGradient>
	<polygon class="st20" points="335.83,143.21 716.34,143.21 354.53,155.45 354.38,156.44 335.83,156.44 	"/>
	<polygon class="st8" points="335.83,129.83 353.12,129.83 353.34,131.5 725.68,142.86 720.61,143.06 335.83,143.06 	"/>
</g>
<g id="Compass_x5F_04">
	
		<linearGradient id="SVGID_16_" gradientUnits="userSpaceOnUse" x1="2984.3079" y1="-1393.0629" x2="2991.5059" y2="-1385.3439" gradientTransform="matrix(1 0 0 1 -2700 1584)">
		<stop  offset="0" style="stop-color:#000000"/>
		<stop  offset="1" style="stop-color:#A3A5A8"/>
	</linearGradient>
	<polygon class="st21" points="240.53,238.23 335.75,143.01 343,150.26 336.83,156.43 336.22,155.9 236.24,243.01 	"/>
	
		<linearGradient id="SVGID_17_" gradientUnits="userSpaceOnUse" x1="2989.9836" y1="-1391.8711" x2="2982.2715" y2="-1399.063" gradientTransform="matrix(1 0 0 1 -2700 1584)">
		<stop  offset="0" style="stop-color:#000000"/>
		<stop  offset="0.9922" style="stop-color:#FFFFFF"/>
		<stop  offset="1" style="stop-color:#FFFFFF"/>
	</linearGradient>
	<polygon class="st22" points="322.52,141.73 328.5,135.76 335.75,143.01 240.49,238.26 324.68,144.2 	"/>
	<polygon class="st8" points="432.28,239.43 335.87,143.01 343.12,135.76 350.16,142.8 348.97,144.2 	"/>
	<polygon class="st23" points="335.17,156.82 328.61,150.26 335.87,143.01 432.26,239.4 435.31,242.89 336.22,155.9 	"/>
	
		<linearGradient id="SVGID_18_" gradientUnits="userSpaceOnUse" x1="3083.3987" y1="-1492.0663" x2="3093.676" y2="-1481.0452" gradientTransform="matrix(1 0 0 1 -2700 1584)">
		<stop  offset="0" style="stop-color:#000000"/>
		<stop  offset="1" style="stop-color:#C6C8CA"/>
	</linearGradient>
	<polygon class="st24" points="335.87,142.89 433.51,45.25 434.28,44.57 348.97,144.2 343.12,150.14 	"/>
	<polygon class="st23" points="335.75,142.89 328.5,150.14 323.67,145.32 324.68,144.2 238.29,45.43 	"/>
	
		<linearGradient id="SVGID_19_" gradientUnits="userSpaceOnUse" x1="2984.5042" y1="-1488.9675" x2="2995.5173" y2="-1499.2375" gradientTransform="matrix(1 0 0 1 -2700 1584)">
		<stop  offset="0" style="stop-color:#000000"/>
		<stop  offset="0.9609" style="stop-color:#FFFFFF"/>
		<stop  offset="1" style="stop-color:#FFFFFF"/>
	</linearGradient>
	<polygon class="st25" points="335.75,142.89 238.32,45.47 236.87,43.81 336.22,130.57 337.13,129.77 343,135.64 	"/>
	
		<linearGradient id="SVGID_20_" gradientUnits="userSpaceOnUse" x1="3086.4883" y1="-1488.2822" x2="3075.4666" y2="-1498.5601" gradientTransform="matrix(1 0 0 1 -2700 1584)">
		<stop  offset="0" style="stop-color:#000000"/>
		<stop  offset="0.9531" style="stop-color:#FFFFFF"/>
		<stop  offset="1" style="stop-color:#FFFFFF"/>
	</linearGradient>
	<polygon class="st26" points="335.87,142.89 328.62,135.64 334.87,129.39 336.22,130.57 433.54,45.22 	"/>
</g>
<g id="Forground_Circles">
	<path class="st27" d="M299.53,141.8c0-20.42,16.55-36.98,36.98-36.98c20.42,0,36.98,16.55,36.98,36.98
		c0,20.42-16.55,36.98-36.98,36.98C316.08,178.78,299.53,162.22,299.53,141.8z"/>
	<path class="st28" d="M302.04,141.8c0-19.04,15.43-34.47,34.46-34.47c19.04,0,34.47,15.43,34.47,34.47
		c0,19.04-15.43,34.47-34.47,34.47C317.47,176.27,302.04,160.84,302.04,141.8z"/>
	
		<radialGradient id="SVGID_21_" cx="3025.519" cy="-1447.1407" r="44.0237" gradientTransform="matrix(1 0 0 1 -2700 1584)" gradientUnits="userSpaceOnUse">
		<stop  offset="0" style="stop-color:#FFFFFF"/>
		<stop  offset="1" style="stop-color:#000000"/>
	</radialGradient>
	<path class="st29" d="M304.29,141.89c0-17.74,14.38-32.12,32.12-32.12c17.74,0,32.12,14.38,32.12,32.12
		c0,17.74-14.38,32.12-32.12,32.12C318.67,174.01,304.29,159.63,304.29,141.89z"/>
</g>
<g id="Outer_Black">
	<g>
		<path class="st30" d="M640.41,220.79h22.12l2.46-3.41c0,0,8.73,3.61,18.94,3.93c15.09-0.14,22.06-8.35,22.06-8.35
			c8.22-8.34,7.31-19.02,7.31-19.02s0.1-25.01,0-35.34c-0.42-6.97-0.94-7.28-1.59-8.52c-2.22-4.82-10.79-6.79-10.79-6.79
			l-31.34-9.01l-0.24-19.85c0.66-4.37,7.69-3.62,7.69-3.62c10.64,2.28,12.22,16.57,12.22,16.57l24.25,0.18l-0.19-39.55h-23.3
			l-1.26,2.4c0,0-6.08-3.23-22.58-2.89c-15.86,0-25.63,14.99-25.63,22.46c-0.12,4.6-0.06,39.11-0.06,39.11
			c0.06,7.18,9.52,10.33,9.52,10.33l33.68,9.85l-0.14,21.26c0.14,4.65-4.77,4.98-4.77,4.98c-6.78-0.33-10.16-6.07-10.16-6.07
			c-2.45-3.32-5.16-10.94-5.16-10.94l-22.92-0.15v17.62L640.41,220.79z"/>
		<path class="st30" d="M522.12,68.77c0-9.71,7.87-17.58,17.58-17.58c9.71,0,17.58,7.87,17.58,17.58c0,9.71-7.87,17.58-17.58,17.58
			C529.99,86.35,522.12,78.48,522.12,68.77z"/>
		
			<ellipse transform="matrix(0.8118 -0.5839 0.5839 0.8118 0.0192 138.4695)" class="st30" cx="214.82" cy="69.2" rx="17.58" ry="17.58"/>
		<path class="st30" d="M592.95,143.19l0.17-28.43c0-1.68,3-3.19,5.92-3.04c2.42,0.07,6.03-0.04,6.71,2.99v28.32L592.95,143.19z
			 M605.57,178.35l0.18,13.62c0,1.37-2.54,3.98-5.73,3.98c-3.87,0-6.9-3.3-6.9-3.3v-23.72l43.41,0.34v-59.73
			c-0.67-9.08-9.76-14.81-9.76-14.81c-9.93-8.58-27.76-7.74-27.76-7.74c-13.12-0.34-25.74,6.73-25.74,6.73
			c-9.59,6.39-10.85,18.77-10.85,18.77v83.45c2.44,13.52,13.04,19.58,13.04,19.58s5.72,5.26,23.72,5.89
			c24.23-0.63,31.46-10.94,31.46-10.94c4.54-5.05,6.06-11.95,6.06-14.53c0-6.83-0.34-17.62-0.34-17.62L605.57,178.35z"/>
		<path class="st30" d="M325.27,141.68c0,0-1.68,7.74,3.03,11.1c4.54,4.54,12.41,3.45,12.41,3.45L325.27,141.68z M394.1,136.58
			l3.7-24.08l3.39,24.08L394.1,136.58z M310.53,87.99h-23.3l-1.26,2.4c0,0-6.08-3.23-22.58-2.89c-15.86,0-25.63,14.99-25.63,22.46
			c-0.12,4.6-0.06,39.11-0.06,39.11c0.06,7.18,9.52,10.33,9.52,10.33l33.68,9.85l-0.14,21.26c0.14,4.65-4.77,4.98-4.77,4.98
			c-6.78-0.33-10.16-6.07-10.16-6.07c-2.45-3.32-5.16-10.94-5.16-10.94l-22.92-0.15v17.62h-5.14V87.99h-34.22v24.51h4.3l0.38,83.45
			l-11.69-0.31l-17.24-40.61l11.46-42.53h7.31l-0.15-24.51H115.1v24.51h8l13.53,31.54l-14.45,49.9c-0.38,1.56-2.02,2.02-2.02,2.02
			h-5.07c-1.53,0-1.82-1.09-1.82-1.09L92.34,49.66H40.81L41,74.07h8.41L32.8,191.64c-0.54,3.07-2.23,4.32-3.15,4.32h-6.47
			l-0.1,25.05l39.49,0.01v-25.07h-3.68c-1.69,0-1.92-1.1-1.69-1.63c0.08-0.77,4.97-32.48,4.97-32.48h13.85l4.64,32.33
			c0.08,0.92,0.31,2.02-0.77,1.79h-4.93l-0.15,24.84h184.97l2.46-3.41c0,0,8.73,3.61,18.94,3.93c15.09-0.14,22.06-8.35,22.06-8.35
			c8.22-8.34,7.31-19.02,7.31-19.02V158.6c3.58,10.68,18.69,11.01,20.46,10.92c9.25-0.42,16.82-5.38,17.83-6.48
			c1.51,1.26,10.68,7.57,10.68,7.57c4.21-9.17,8.16-11.86,8.16-11.86l-5.1,33.21c-0.62,3.21-3.62,3.88-3.62,3.88l-6.06,0.36
			l-0.03,24.58h39.87v-24.84l-4.28-0.11c-2.03,0.11-1.63-1.16-1.63-1.16l5.24-33.33h13.46l4.63,33.06c0.08,1.09-1.09,1.54-1.09,1.54
			l-4.68-0.11l-0.03,24.94l157.84-0.14l0.23-24.69h-5.13V87.99H522.2v24.51h4.96v83.45h-10.35V49.66h-34.66l0.12,24.23l5.43,0.15
			v121.91h-10.18V49.66h-34.91v24.38h5.55l-0.08,121.91h-4.46L422.27,49.66H370.7v24.38h8.58l-11.09,79.28
			c-3.55-1.55-8.93-5.25-8.93-5.25c6.48-6.31,5.55-18.93,5.55-18.93l-19.68-0.08c5.55,3.62,6.48,12.03,5.55,12.95
			c-4.96-4.12-13.27-12.84-13.27-12.84c-4.99-4.57-2.47-7.52-2.47-7.52c4.46-3.62,13.29,2.36,13.29,2.36l-1.77-9.77
			c-8.33-5.54-20.11-2.68-23.22-0.66c-12.53,7.9-3.95,20.27-3.95,20.27c-9.67,4.12-10.77,14.13-10.94,16.4
			c-1.53-4.59-10.22-6.98-10.22-6.98l-31.34-9.01l-0.24-19.85c0.66-4.37,7.69-3.62,7.69-3.62c10.64,2.28,12.22,16.57,12.22,16.57
			l24.25,0.18L310.53,87.99z M148.28,196.02l4.21-14.47l5.72,14.41L148.28,196.02z M158.59,118.71l1.94-6.21h-4.35L158.59,118.71z
			 M65.35,136.58l3.7-24.08l3.39,24.08L65.35,136.58z"/>
	</g>
</g>
<g id="Inner_Red">
	<g>
		<path class="st31" d="M240.58,217.38l17.37-0.03l2.95-4.09c0,0,4.26,1.75,7.5,2.63c3.3,0.9,7.77,1.82,12.55,1.98
			c6.37-0.07,15.25-2.25,19.8-7.37c4.12-4.18,6.93-10.88,6.53-16.86l-0.01-35.49l0-3.09c0.04-2.02-1.95-4.48-1.95-4.48
			c-1.52-2.75-7.54-4.64-8.23-4.83l-33.54-9.64l-0.27-22.36c0.76-5.04,5.39-6.51,9.62-6.49c0.86,0,1.59,0.08,1.59,0.08
			c8.21,1.76,12.54,9.11,14.26,16.56l18.69,0.14l-0.16-33.49h-18.46l-1.78,3.41c0,0-4.03-2-7.05-2.64
			c-3.33-0.71-8.77-1.42-16.82-1.25c-14.03,0-22.64,13.52-22.64,19.48c-0.12,4.59-0.06,39.07-0.06,39.07
			c0.04,4.67,6.84,7.27,7.45,7.48l35.79,10.46l-0.15,23.56c0.09,4.66-3.53,7.77-7.81,7.99c-5.1-0.25-9.98-3.12-12.68-7.41
			c-2.07-2.86-3.46-6.34-4.74-9.62l-17.8-0.12L240.58,217.38z"/>
		<polygon class="st31" points="200.01,217.42 234.57,217.43 234.57,198.5 229.31,198.56 229.31,90.55 201.14,90.55 201.14,109.01 
			205.42,109.01 205.83,198.65 200,198.5 		"/>
		<path class="st31" d="M691.71,123.9l18.69,0.14l-0.16-33.49h-18.46L690,93.96c0,0-4.03-2-7.05-2.64
			c-3.33-0.71-8.77-1.42-16.82-1.25c-14.03,0-22.64,13.52-22.64,19.48c-0.12,4.59-0.06,39.07-0.06,39.07
			c0.04,4.67,6.84,7.27,7.45,7.48l35.79,10.46l-0.15,23.56c0.09,4.66-3.53,7.77-7.81,7.99c-5.1-0.25-9.98-3.12-12.69-7.41
			c-2.07-2.86-3.46-6.34-4.74-9.62l-17.8-0.12v14.59l-0.12,21.81h17.54l2.95-4.09c0,0,4.26,1.75,7.5,2.63
			c3.3,0.9,7.77,1.82,12.54,1.98c6.37-0.07,15.25-2.25,19.8-7.37c4.12-4.19,6.93-10.88,6.53-16.86c0,0,0.1-25,0-35.37
			c-0.16-2.53-0.09-5.04-1.28-7.29c-1.47-3.2-8.34-5.09-8.84-5.21l-33.6-9.66l-0.27-22.36c0.76-5.04,5.39-6.51,9.62-6.49
			c0.86,0,1.59,0.08,1.59,0.08C685.66,109.1,689.99,116.45,691.71,123.9z"/>
		<path class="st32" d="M525.46,68.29c0-7.79,6.31-14.1,14.1-14.1c7.79,0,14.1,6.31,14.1,14.1c0,7.79-6.32,14.1-14.1,14.1
			C531.78,82.39,525.46,76.08,525.46,68.29z"/>
		<path class="st32" d="M398.06,95.25l6.42,43.91l-14.11,0L398.06,95.25z M370.13,160.86l-4.79,31.21c-0.61,3.16-3.1,5.75-6.22,6.38
			l-3.42,0.2l-0.02,18.71h33.83v-18.86l-1.23-0.03c-2.88,0.09-5.16-1.81-4.63-4.75l5.63-35.81h18.69l5,35.78
			c0.2,2.55-1.44,4.13-3.62,4.9l-2.14-0.05l-0.02,18.82l151.88-0.14l0.17-18.65h-5.11V90.55h-29.04v18.46h4.97v89.55h-16.41V52.2
			h-28.6l0.09,18.26l5.45,0.16v127.95h-16.24V52.2h-28.87v18.33h5.56l-0.09,128.03h-10.11L419.46,52.2h-45.94v18.33h9.04
			l-10.71,76.53L370.13,160.86z"/>
		<path class="st32" d="M321.83,142.17c0.11-0.98,0.47-4.39,2.49-5.9c1.56,1.64,20.83,19.82,20.83,19.82
			c-0.63,1.85-6.62,3.15-9.68,2.69c-2.86-0.43-6.44-1.3-9.37-4.12C322.21,151.72,321.35,146.64,321.83,142.17z M313.16,157.19
			c2.67,5.78,11.37,9.16,17.46,8.87c6.64-0.3,13.25-2.79,17.71-7.63c3.15,2.63,6.42,4.92,9.8,7.26c2.96-5.54,4.89-7.8,8.33-10.3
			c-4.24-2.14-8.11-4.57-12.18-7.37c5.23-5.09,7.01-8.93,7.3-16.32l-10.1-0.04c3,5.46,3.51,9.65-0.83,14
			c-5.52-4.59-10.63-9.59-15.59-14.78c-3.19-2.96-5.88-8.21-2.39-11.92c3.38-2.74,7.64-2.18,11.29-0.83l-0.44-2.47
			c-7.01-3.82-16.58-1.47-18.86,0.01c-9.12,5.75-5.01,13.25-0.98,19.06c-7.3,3.11-11.82,6.34-12.39,15.31
			C311.35,154.41,313.16,157.19,313.16,157.19z"/>
		<circle class="st32" cx="214.53" cy="68.72" r="14.1"/>
		<path class="st32" d="M157.25,109.09l4.33-0.05c0,0,2.48-0.31,2.26,1.56c-1.12,3.48-5.25,16.82-5.25,16.82l-7.15-18.41l2.45,0.02
			V90.55l-36.09,0v18.46h6.98l14.75,34.38l-14.76,50.97c-0.59,2.2-2.28,4.14-4.55,4.21h-5.45c-3.97-0.06-4.08-0.68-4.79-3.52
			L89.37,52.2H43.48l0.14,18.36h8.9L35.41,191.68c-0.64,3.63-3,6.88-6.14,6.88h-3.46l-0.08,19.01l33.44,0.01v-19.02h-0.66
			c-4.5-0.06-5.41-2.77-4.65-5.37c0.55-3.82,5.33-34.82,5.33-34.82h19.08l5.02,35.03c0.6,5.1,0.7,5.1-4.01,5.16H77.6l-0.12,18.79
			l71.62,0.08V198.5l-5.19,0.15l7.81-26.86l10.62,26.74l-9.25,0.06l0.08,18.84h42.67V198.5h-6.61l-18.57-43.69l12.34-45.81h6.59
			l-0.12-18.46l-32.22,0V109.09z M68.86,94.39l6.71,44.77l-14.11,0L68.86,94.39z"/>
		<path class="st32" d="M589.98,114.29c0-4.39,5.61-6.23,9.11-6.06c4.2,0.12,8.44,0.49,9.59,5.69v31.65l-18.88,0.25L589.98,114.29z
			 M608.68,191.53c0,3.65-4.57,7.04-8.77,7.04c-4.08,0-7.35-2.3-9.93-5.17v-27.95l43.43,0.34V109.2c-0.4-4.84-4.49-9.94-8.54-12.49
			c-6.04-5.22-17.73-7.54-25.93-7.16c-7.79-0.2-17.31,2.56-24.21,6.3c-5.18,3.51-8.59,10.21-9.4,16.37v83.04
			c1.26,6.63,5.73,13.85,11.71,17.35c0,0,0.58,0.47,1.07,0.77c5.54,3.41,14.98,4.39,20.98,4.61c8.21-0.22,22.65-2.33,28.82-9.45
			c3.97-4.41,5.68-11.04,5.68-13c0-4.58-0.15-10.93-0.25-14.6l-24.79,0.01L608.68,191.53z"/>
	</g>
</g>
<g id="Guides">
</g>
<g id="Inner_Black">
	<g>
		<polygon class="st33" points="527.56,214.36 555.94,214.33 556.06,201.75 550.98,201.75 550.98,93.77 528.01,93.77 528.01,106.17 
			532.98,106.17 532.98,201.75 527.56,201.75 		"/>
		<polygon class="st33" points="525.15,201.75 510.51,201.75 510.51,55.44 488,55.44 488.06,67.72 493.52,67.88 493.52,201.75 
			488.15,201.75 488.15,214.4 525.14,214.36 		"/>
		<polygon class="st33" points="485.74,201.75 471.23,201.75 471.23,55.44 448.42,55.44 448.42,67.7 453.98,67.7 453.89,201.75 
			447.27,201.75 447.27,214.43 485.74,214.4 		"/>
		<path class="st33" d="M444.86,201.75h-6.72L416.77,55.44h-40.28V67.7h9.49l-11.18,79.95l-1.72,13.79l-4.81,31.3
			c-0.87,4.49-4.34,7.97-8.82,8.87l-0.78,0.05l-0.01,12.82h27.76v-12.99c-3.53-0.68-6.64-3.58-5.81-8.17l6.01-38.29h23.91
			l5.38,38.47c0.31,4.04-2.21,6.89-5.75,8.13l-0.01,12.84l34.71-0.03V201.75z"/>
		<path class="st33" d="M256.39,214.47l3.44-4.77c0,0,6.27,2.58,9.35,3.42c3.1,0.84,7.29,1.72,11.78,1.87
			c6.03-0.08,13.86-2.25,17.55-6.41c3.58-3.63,6.05-9.67,5.71-14.68l-0.01-35.58l0-3.12c0.01-0.74-0.98-2.18-1.45-2.75
			c-0.91-1.65-4.73-3.12-6.52-3.61l-35.71-10.26l-0.3-24.85c1.04-6.87,6.75-9.33,12.66-9.31c1.04,0,2.07,0.13,2.07,0.13
			c8.94,1.91,13.88,9.29,16.09,16.52l13.32,0.1l-0.13-27.39h-13.61l-2.3,4.41c-9.28-4.59-14.24-5.12-25.15-4.89
			c-12.2,0-19.64,12.04-19.64,16.48c-0.12,4.58-0.06,39-0.06,39c0.02,2.02,3.73,4.07,5.38,4.62l37.87,11.06l-0.17,25.84
			c0.08,6.34-4.84,10.69-10.83,11c-6.13-0.3-11.88-3.55-15.19-8.75c-1.85-2.59-3.19-5.56-4.3-8.3l-12.69-0.09l0.05,30.33
			L256.39,214.47z"/>
		<polygon class="st33" points="231.54,214.55 231.54,201.72 226.29,201.79 226.29,93.77 204.18,93.77 204.18,106.17 208.45,106.17 
			208.89,201.91 203.04,201.76 203.05,214.54 		"/>
		<polygon class="st33" points="79.15,142.36 57.95,142.37 65.93,94.09 71.91,94.14 		"/>
		<polygon class="st33" points="407.92,142.36 386.7,142.37 395.02,94.92 401,95 		"/>
		<path class="st33" d="M707.19,121.17l-0.13-27.39h-13.61l-2.3,4.4c-9.28-4.59-14.24-5.12-25.15-4.89
			c-12.2,0-19.64,12.04-19.64,16.48c-0.12,4.58-0.06,39-0.06,39c0.02,2.02,3.73,4.07,5.38,4.62l37.86,11.06l-0.17,25.84
			c0.08,6.34-4.84,10.69-10.83,11c-6.12-0.3-11.88-3.55-15.19-8.75c-1.85-2.59-3.19-5.56-4.3-8.3l-12.7-0.09v11.54l-0.1,18.77h12.94
			l3.44-4.77c0,0,6.27,2.58,9.35,3.42c3.1,0.84,7.29,1.72,11.78,1.87c6.03-0.08,13.86-2.25,17.55-6.41
			c3.58-3.64,6.05-9.67,5.71-14.69c0,0,0.09-25.07-0.01-35.43c-0.11-1.97-0.01-4.17-0.96-5.97c-0.69-1.5-5.27-3.25-6.88-3.62
			l-35.83-10.29l-0.3-24.85c1.04-6.87,6.75-9.33,12.66-9.31c1.04,0,2.07,0.13,2.07,0.13c8.94,1.91,13.88,9.29,16.09,16.52
			L707.19,121.17z"/>
		<path class="st33" d="M599.78,201.75c-5.63,0-9.45-3.15-12.96-7.03v-32.16l43.41,0.34v-53.37c-0.41-4.05-4.13-8.18-7.32-10.18
			c-5.76-4.98-16.92-6.91-24.08-6.57c-7.1-0.18-16.13,2.36-22.66,5.86c-4.19,2.9-7.19,8.58-7.95,13.98v82.5
			c1.21,5.89,5.14,12.06,10.41,15.14c0,0,0.58,0.47,0.92,0.68c4.76,2.92,13.36,3.93,19.4,4.16c8.32-0.24,21.35-2.45,26.52-8.42
			c3.45-3.83,4.92-9.75,4.92-10.99c0-3.48-0.09-8-0.17-11.56l-18.76,0.01l0.1,7.53C611.57,197.64,604.91,201.75,599.78,201.75z"/>
		<path class="st33" d="M116.97,214.52l29.14,0.03v-12.77l-6.23,0.18l11.43-39.32l15.51,39.06l-10.66,0.07l0.05,12.79h36.61v-12.87
			h-5.58l-19.76-46.48l13.21-49.04h5.86l-0.08-12.4l-26.16,0v12.44l1.19-0.01c3.11-0.19,5.77,1.61,5.34,5.23
			c-2.69,8.38-5.3,16.95-7.91,25.37l-11.9-30.67l3.85,0.03V93.77l-30.02,0v12.4h5.94l15.96,37.2l-15.06,51.99
			c-0.8,2.91-3.31,6.28-7.42,6.39h-3.32L116.97,214.52z"/>
		<path class="st33" d="M114.56,214.51l-33.97-0.04l0.08-12.77c5.73-0.34,6.4-2.52,5.69-8.53l-5.4-37.66h-24.3
			c0,0-5.03,32.66-5.7,37.21c-0.97,3.69,0.49,7.72,5.24,8.77v13.21l-27.35-0.01l0.05-12.94h0.44c5.43,0,8.41-5.34,9.13-9.43
			l17.6-124.59H46.7L46.6,55.44H86.8l20.24,140.35c1.16,4.6,2.64,5.84,7.52,5.96L114.56,214.51z"/>
		<path class="st33" d="M599.1,105.39c6.16,0.18,10.94,1.48,12.47,8.38v34.96l-24.95,0.33l0.21-34.59
			C586.82,106.99,595.62,105.22,599.1,105.39z"/>
		<path class="st34" d="M528.15,68.49c0-6.24,5.06-11.3,11.3-11.3c6.24,0,11.3,5.06,11.3,11.3c0,6.24-5.06,11.3-11.3,11.3
			C533.21,79.8,528.15,74.73,528.15,68.49z"/>
		<path class="st34" d="M203.23,68.92c0-6.24,5.06-11.3,11.3-11.3c6.24,0,11.3,5.06,11.3,11.3c0,6.24-5.06,11.3-11.3,11.3
			C208.29,80.23,203.23,75.17,203.23,68.92z"/>
	</g>
	<path class="st35" d="M410.88,246.81"/>
</g>
<g id="_x31_942_ONLINE">
	<polygon class="st36" points="522.49,230.27 550.26,296.27 414.31,296.27 386.53,230.27 	"/>
	<linearGradient id="SVGID_22_" gradientUnits="userSpaceOnUse" x1="522.4901" y1="263.2671" x2="710.4053" y2="263.2671">
		<stop  offset="0" style="stop-color:#E03F37"/>
		<stop  offset="1" style="stop-color:#983B37"/>
	</linearGradient>
	<polygon class="st37" points="522.49,230.27 550.26,296.27 710.41,296.27 710.41,230.27 	"/>
	<g>
		<g>
			<path class="st38" d="M434.94,244.07v37.95h-9.47v-20.34c0-2.94-0.07-4.7-0.21-5.3s-0.53-1.04-1.16-1.35s-2.04-0.46-4.23-0.46
				h-0.94v-4.42c4.58-0.99,8.05-3.01,10.43-6.08H434.94z"/>
		</g>
		<g>
			<path class="st38" d="M441.02,271.94h9.47c0,1.77,0.02,2.88,0.07,3.34s0.24,0.85,0.57,1.16s0.79,0.47,1.37,0.47
				c0.48,0,0.88-0.15,1.2-0.45s0.49-0.68,0.53-1.15s0.06-1.41,0.06-2.84v-6.05c-0.47,1.02-1.17,1.78-2.11,2.29s-2.1,0.76-3.49,0.76
				c-1.73,0-3.27-0.47-4.59-1.41s-2.17-2.06-2.53-3.38s-0.54-3.09-0.54-5.32v-3.02c0-2.66,0.11-4.63,0.32-5.93s0.75-2.5,1.63-3.6
				s2.09-1.96,3.63-2.57s3.34-0.91,5.39-0.91c2.53,0,4.61,0.35,6.23,1.05s2.88,1.71,3.77,3.04s1.41,2.71,1.55,4.16
				s0.21,4.27,0.21,8.44v5.27c0,4.52-0.06,7.54-0.19,9.06s-0.67,2.96-1.63,4.32s-2.26,2.38-3.9,3.06s-3.54,1.02-5.7,1.02
				c-2.67,0-4.86-0.43-6.55-1.29s-2.91-2.07-3.66-3.63S441.02,274.31,441.02,271.94z M450.49,260.1c0,1.59,0.21,2.58,0.62,2.95
				s0.84,0.56,1.28,0.56c0.66,0,1.14-0.24,1.44-0.71s0.46-1.41,0.46-2.8v-6.87c0-1.67-0.14-2.77-0.43-3.28s-0.77-0.77-1.44-0.77
				c-0.41,0-0.83,0.2-1.27,0.6s-0.66,1.47-0.66,3.22V260.1z"/>
		</g>
		<g>
			<path class="st38" d="M488.72,244.07v24.8h2.7v6.47h-2.7v6.68h-9.47v-6.68h-11.25v-6.47l8.18-24.8H488.72z M479.26,268.87v-16.15
				l-4.18,16.15H479.26z"/>
		</g>
		<g>
			<path class="st38" d="M516.2,275.55v6.47h-20.84l0.01-5.41c6.17-10.09,9.84-16.34,11-18.74s1.75-4.27,1.75-5.61
				c0-1.03-0.18-1.8-0.53-2.31s-0.89-0.76-1.61-0.76s-1.26,0.28-1.61,0.84c-0.35,0.56-0.53,1.68-0.53,3.35v3.61h-8.48v-1.38
				c0-2.12,0.11-3.8,0.33-5.03s0.76-2.43,1.62-3.62s1.98-2.09,3.35-2.7s3.02-0.91,4.95-0.91c3.77,0,6.61,0.93,8.54,2.8
				s2.89,4.23,2.89,7.09c0,2.17-0.54,4.47-1.63,6.89c-1.09,2.42-4.29,7.56-9.6,15.42H516.2z"/>
		</g>
	</g>
	<g>
		<path class="st38" d="M577.57,266.29c0,3.81-0.09,6.51-0.27,8.1s-0.74,3.04-1.69,4.35s-2.22,2.32-3.83,3.02s-3.48,1.05-5.62,1.05
			c-2.03,0-3.86-0.33-5.47-1s-2.92-1.66-3.9-2.99s-1.57-2.77-1.76-4.34s-0.28-4.3-0.28-8.2v-6.49c0-3.81,0.09-6.51,0.27-8.1
			s0.74-3.04,1.69-4.35s2.22-2.32,3.83-3.02s3.48-1.05,5.62-1.05c2.03,0,3.86,0.33,5.47,1s2.92,1.66,3.9,2.99s1.57,2.77,1.76,4.34
			s0.28,4.3,0.28,8.2V266.29z M567.71,253.82c0-1.77-0.1-2.89-0.29-3.39s-0.6-0.74-1.21-0.74c-0.52,0-0.91,0.2-1.18,0.6
			s-0.41,1.57-0.41,3.53v17.72c0,2.2,0.09,3.56,0.27,4.08s0.6,0.77,1.25,0.77c0.67,0,1.1-0.3,1.29-0.89s0.28-2.01,0.28-4.24V253.82z
			"/>
		<path class="st38" d="M605.69,244.07v37.95h-8.65l-5.13-17.25v17.25h-8.25v-37.95h8.25l5.53,17.09v-17.09H605.69z"/>
		<path class="st38" d="M621.91,244.07v30.35h6v7.59h-15.87v-37.95H621.91z"/>
		<path class="st38" d="M642.57,244.07v37.95h-9.87v-37.95H642.57z"/>
		<path class="st38" d="M670.96,244.07v37.95h-8.65l-5.13-17.25v17.25h-8.25v-37.95h8.25l5.53,17.09v-17.09H670.96z"/>
		<path class="st38" d="M677.32,244.07h16.45v7.59h-6.59v7.2h6.16v7.22h-6.16v8.34h7.24v7.59h-17.11V244.07z"/>
	</g>
</g>
</svg>
